<mxfile host="app.diagrams.net" modified="2020-09-30T02:06:16.379Z" agent="5.0 (Windows NT 10.0; Win64; x64) AppleWebKit/537.36 (KHTML, like Gecko) Chrome/85.0.4183.121 Safari/537.36" etag="fT0KMEhdSIISIhtUrY9r" version="13.7.6" type="github">
  <diagram id="UjSl_57OeX7A2XPSbS4z" name="Page-1">
    <mxGraphModel dx="868" dy="482" grid="1" gridSize="10" guides="1" tooltips="1" connect="1" arrows="1" fold="1" page="1" pageScale="1" pageWidth="827" pageHeight="1169" math="0" shadow="0">
      <root>
        <mxCell id="0" />
        <mxCell id="1" parent="0" />
        <mxCell id="3FCYgUEJR5iQdMjclsQc-1" value="Cachorro" style="rounded=0;whiteSpace=wrap;html=1;" vertex="1" parent="1">
          <mxGeometry x="100" y="90" width="120" height="30" as="geometry" />
        </mxCell>
        <mxCell id="3FCYgUEJR5iQdMjclsQc-2" value="Raça&lt;br&gt;Peso&lt;br&gt;Tamanho" style="rounded=0;whiteSpace=wrap;html=1;" vertex="1" parent="1">
          <mxGeometry x="100" y="120" width="120" height="60" as="geometry" />
        </mxCell>
        <mxCell id="3FCYgUEJR5iQdMjclsQc-8" value="Ocioso&lt;br&gt;Ativo&lt;br&gt;" style="rounded=0;whiteSpace=wrap;html=1;" vertex="1" parent="1">
          <mxGeometry x="100" y="180" width="120" height="60" as="geometry" />
        </mxCell>
        <mxCell id="3FCYgUEJR5iQdMjclsQc-9" value="Fabrica de Ração" style="rounded=0;whiteSpace=wrap;html=1;" vertex="1" parent="1">
          <mxGeometry x="340" y="80" width="120" height="30" as="geometry" />
        </mxCell>
        <mxCell id="3FCYgUEJR5iQdMjclsQc-10" value="Quantidade por embalagem&amp;nbsp;&lt;br&gt;Sabor" style="rounded=0;whiteSpace=wrap;html=1;" vertex="1" parent="1">
          <mxGeometry x="340" y="110" width="120" height="60" as="geometry" />
        </mxCell>
        <mxCell id="3FCYgUEJR5iQdMjclsQc-11" value="Ocioso&lt;br&gt;Ativo" style="rounded=0;whiteSpace=wrap;html=1;" vertex="1" parent="1">
          <mxGeometry x="340" y="170" width="120" height="60" as="geometry" />
        </mxCell>
      </root>
    </mxGraphModel>
  </diagram>
</mxfile>
